#!OML:ASF I:\golf\golf\golf 2\Subject 1\2002-09-07\Subject1.ASF
:FULLY-SPECIFIED
:DEGREES
240
root 1.48653 15.9354 -2.20529 54.5916 12.1475 5.11616
lowerback 34.8695 3.59644 2.90369
upperback 22.5077 5.4423 13.9518
thorax 5.85307 1.78795 12.1067
lowerneck -24.9172 -11.7232 -24.7272
upperneck 7.97699 -6.77515 -4.94128
head 7.01866 -4.52362 0.930161
rclavicle 6.36111e-015 1.74931e-014
rhumerus 71.2324 -9.81307 -54.6153
rradius 24.7572
rwrist -5.48194
rhand -47.3354 27.6883
rfingers 7.12502
rthumb -20.0297 -1.29933
lclavicle 6.36111e-015 1.74931e-014
lhumerus -8.56808 -38.3531 92.5798
lradius 96.5847
lwrist -17.9758
lhand -46.5981 21.6103
lfingers 7.12502
lthumb -19.3209 50.6705
rfemur -95.9336 -22.9436 33.4977
rtibia 66.7829
rfoot -20.9685 -2.292
rtoes -8.47399
lfemur -95.9182 -3.17736 -30.0856
ltibia 53.5157
lfoot -5.69437 -22.9877
ltoes 10.3973
241
root 1.4991 15.9326 -2.19165 54.8546 12.1326 5.15284
lowerback 34.7089 3.56767 2.92148
upperback 22.4987 5.40044 13.9389
thorax 5.91176 1.76951 12.1036
lowerneck -24.9624 -11.7349 -24.6627
upperneck 7.93136 -6.79587 -5.00717
head 7.00619 -4.53444 0.895861
rclavicle -6.36111e-015 -2.78299e-014
rhumerus 71.2983 -9.83044 -54.3897
rradius 24.8369
rwrist -5.55044
rhand -47.4701 27.6832
rfingers 7.12502
rthumb -20.1591 -1.2908
lclavicle -6.36111e-015 -2.78299e-014
lhumerus -8.51824 -38.2735 92.5514
lradius 96.7781
lwrist -17.1013
lhand -46.4201 20.3327
lfingers 7.12502
lthumb -19.1498 49.41
rfemur -96.1583 -22.9343 33.523
rtibia 66.7562
rfoot -21.0003 -2.26838
rtoes -8.27706
lfemur -96.1251 -3.28006 -30.1133
ltibia 53.5107
lfoot -5.74273 -22.9584
ltoes 10.4073
242
root 1.51309 15.9243 -2.17815 55.1664 12.1263 5.28833
lowerback 34.5225 3.51467 3.02278
upperback 22.4483 5.35036 13.8787
thorax 5.95012 1.76289 12.0014
lowerneck -25.0534 -11.7775 -24.5718
upperneck 8.03096 -6.85061 -4.97346
head 7.05651 -4.56631 0.881312
rclavicle -4.29375e-014 -8.0309e-014
rhumerus 71.2189 -9.96746 -54.2658
rradius 24.8939
rwrist -5.50787
rhand -47.4658 27.9103
rfingers 7.12502
rthumb -20.1551 -1.06418
lclavicle -4.29375e-014 -8.0309e-014
lhumerus -8.45258 -38.3467 92.4764
lradius 96.9958
lwrist -16.2084
lhand -46.0145 19.3019
lfingers 7.12502
lthumb -18.7597 48.4173
rfemur -96.4228 -23.0128 33.4938
rtibia 66.6287
rfoot -20.8549 -2.27292
rtoes -8.46784
lfemur -96.3285 -3.49608 -30.1722
ltibia 53.4622
lfoot -5.80926 -22.9057
ltoes 10.0725
243
root 1.52818 15.9091 -2.1677 55.5735 12.2585 5.4212
lowerback 34.1415 3.46121 3.16106
upperback 22.3859 5.30164 13.9011
thorax 6.03778 1.75532 11.9813
lowerneck -24.9801 -11.7598 -24.3781
upperneck 7.97492 -6.9193 -5.03369
head 7.02303 -4.59403 0.832347
rclavicle -6.99722e-014 -3.18055e-014
rhumerus 71.0313 -10.099 -54.1567
rradius 25.0202
rwrist -5.36909
rhand -47.4388 28.2172
rfingers 7.12502
rthumb -20.1291 -0.760023
lclavicle -6.99722e-014 -3.18055e-014
lhumerus -8.46782 -38.4122 92.5211
lradius 97.2776
lwrist -15.1014
lhand -45.3727 17.9304
lfingers 7.12502
lthumb -18.1422 47.1043
rfemur -96.862 -23.1146 33.584
rtibia 66.6526
rfoot -20.8379 -2.28662
rtoes -8.22081
lfemur -96.6862 -3.78686 -30.1444
ltibia 53.4668
lfoot -5.63379 -22.9357
ltoes 10.3981
244
root 1.52957 15.9614 -2.13815 54.7679 12.0045 5.07748
lowerback 35.3105 3.80326 2.90661
upperback 22.5077 5.70885 14.004
thorax 5.63952 1.91284 12.0531
lowerneck -24.8232 -11.7233 -24.0714
upperneck 7.67016 -7.0507 -5.14971
head 6.88728 -4.63108 0.753013
rclavicle -1.03368e-013 -9.22361e-014
rhumerus 70.8387 -10.2569 -53.9647
rradius 25.2095
rwrist -5.36686
rhand -47.3667 28.2861
rfingers 7.12502
rthumb -20.0598 -0.698374
lclavicle -1.03368e-013 -9.22361e-014
lhumerus -8.34423 -38.525 92.4659
lradius 97.4035
lwrist -14.0998
lhand -44.8633 16.6489
lfingers 7.12502
lthumb -17.6521 45.8676
rfemur -95.5557 -22.8921 33.1492
rtibia 66.4602
rfoot -21.0827 -2.25515
rtoes -7.43517
lfemur -95.7424 -3.20105 -30.1699
ltibia 53.431
lfoot -5.82634 -22.9775
ltoes 10.8077
245
root 1.54867 15.9189 -2.13806 55.8407 12.4214 5.43011
lowerback 34.0353 3.41892 3.19373
upperback 22.3357 5.26443 13.9908
thorax 6.01687 1.73467 12.0772
lowerneck -24.5002 -11.6228 -24.1621
upperneck 7.30052 -7.03993 -5.08532
head 6.71364 -4.58571 0.814073
rclavicle 1.59028e-014 7.07673e-014
rhumerus 70.7567 -9.99187 -53.5239
rradius 25.4915
rwrist -5.57609
rhand -47.1959 27.8139
rfingers 7.12502
rthumb -19.8956 -1.18768
lclavicle 1.59028e-014 7.07673e-014
lhumerus -8.53685 -38.2116 92.6473
lradius 97.4723
lwrist -13.5933
lhand -44.5216 15.8762
lfingers 7.12502
lthumb -17.3233 45.1241
rfemur -96.9153 -23.1754 33.6881
rtibia 66.4813
rfoot -20.8708 -2.22794
rtoes -7.18047
lfemur -96.7942 -3.95874 -29.9925
ltibia 53.388
lfoot -5.62008 -22.988
ltoes 11.0684
246
root 1.5538 15.9277 -2.12306 56.0019 12.3571 5.27344
lowerback 33.931 3.52667 3.10142
upperback 22.3391 5.35646 13.9997
thorax 6.02875 1.76859 12.1142
lowerneck -24.4794 -11.6159 -24.1401
upperneck 7.28258 -7.05913 -5.00734
head 6.70689 -4.58673 0.837062
rclavicle 0 1.66979e-014
rhumerus 70.6115 -9.97406 -53.0789
rradius 25.7613
rwrist -5.67722
rhand -47.2233 27.5022
rfingers 7.12502
rthumb -19.9219 -1.49666
lclavicle 0 1.66979e-014
lhumerus -8.61828 -38.2028 92.6445
lradius 97.6329
lwrist -13.0644
lhand -44.2733 15.0219
lfingers 7.12502
lthumb -17.0843 44.2908
rfemur -96.9376 -22.9599 33.7593
rtibia 66.3307
rfoot -20.8206 -2.31302
rtoes -7.6594
lfemur -96.9146 -3.81412 -29.9759
ltibia 53.296
lfoot -5.57244 -23.017
ltoes 11.4198
247
root 1.55461 15.9673 -2.10071 55.5374 12.1654 5.10254
lowerback 34.6485 3.73464 2.87044
upperback 22.4381 5.58686 14.0575
thorax 5.80353 1.84835 12.2017
lowerneck -24.5754 -11.6556 -24.1568
upperneck 7.3475 -7.08552 -4.89724
head 6.74857 -4.59861 0.866532
rclavicle 9.54166e-015 -1.27222e-014
rhumerus 70.4804 -10.0209 -52.6009
rradius 25.9796
rwrist -5.6946
rhand -47.3564 27.5518
rfingers 7.12502
rthumb -20.0499 -1.43369
lclavicle 9.54166e-015 -1.27222e-014
lhumerus -8.445 -38.36 92.5373
lradius 97.6843
lwrist -12.9005
lhand -44.2165 14.7307
lfingers 7.12502
lthumb -17.0296 44.0042
rfemur -96.0876 -22.8189 33.425
rtibia 66.128
rfoot -20.9095 -2.44573
rtoes -8.21996
lfemur -96.2603 -3.43765 -30.1372
ltibia 53.1568
lfoot -5.67512 -23.0732
ltoes 11.5195
248
root 1.56782 15.9571 -2.09766 55.8763 12.2081 5.19127
lowerback 34.3214 3.658 2.91953
upperback 22.4128 5.48866 14.0471
thorax 5.91821 1.80666 12.2106
lowerneck -24.5918 -11.6477 -24.1396
upperneck 7.33355 -7.07844 -4.89731
head 6.74474 -4.59421 0.865312
rclavicle -3.18055e-014 -7.39479e-014
rhumerus 70.4154 -9.98416 -52.2417
rradius 26.1502
rwrist -5.66549
rhand -47.2182 27.8719
rfingers 7.12502
rthumb -19.917 -1.12744
lclavicle -3.18055e-014 -7.39479e-014
lhumerus -8.38358 -38.4216 92.5397
lradius 97.5934
lwrist -13.2639
lhand -44.3886 15.3287
lfingers 7.12502
lthumb -17.1952 44.5879
rfemur -96.4608 -22.8842 33.5358
rtibia 66.0317
rfoot -20.7536 -2.41932
rtoes -8.30379
lfemur -96.5358 -3.6423 -30.1508
ltibia 53.0574
lfoot -5.53693 -23.0454
ltoes 11.5016
249
root 1.5645 15.999 -2.07647 55.3508 11.9499 4.98879
lowerback 34.9935 3.8779 2.49126
upperback 22.5203 5.68283 14.1347
thorax 5.69948 1.84693 12.4525
lowerneck -24.4638 -11.5839 -24.1781
upperneck 7.24973 -7.02709 -4.9196
head 6.69411 -4.56298 0.87843
rclavicle -6.20208e-014 -8.98507e-014
rhumerus 70.4082 -9.82581 -52.0393
rradius 26.2472
rwrist -5.42126
rhand -47.1878 28.5433
rfingers 7.12502
rthumb -19.8878 -0.459096
lclavicle -6.20208e-014 -8.98507e-014
lhumerus -8.54827 -38.3292 92.6561
lradius 97.4862
lwrist -13.6295
lhand -44.5842 15.9912
lfingers 7.12502
lthumb -17.3835 45.2339
rfemur -95.5548 -22.7061 33.1849
rtibia 65.815
rfoot -20.8211 -2.44831
rtoes -8.33284
lfemur -95.8549 -3.18855 -30.3053
ltibia 52.9414
lfoot -5.57743 -23.131
ltoes 11.8322
250
root 1.58099 15.9732 -2.07459 55.9296 12.1645 5.25585
lowerback 34.4849 3.69313 2.83911
upperback 22.4056 5.52739 14.1019
thorax 5.82577 1.81431 12.2937
lowerneck -24.4591 -11.6746 -24.2338
upperneck 7.2602 -7.15684 -4.73651
head 6.71285 -4.61365 0.927906
rclavicle -5.08889e-014 -5.96354e-014
rhumerus 70.3239 -10.0709 -51.908
rradius 26.3732
rwrist -4.9823
rhand -47.373 28.5817
rfingers 7.12502
rthumb -20.0658 -0.402164
lclavicle -5.08889e-014 -5.96354e-014
lhumerus -8.4317 -38.5702 92.547
lradius 97.5299
lwrist -13.5227
lhand -44.1901 16.1241
lfingers 7.12502
lthumb -17.0042 45.3998
rfemur -96.2657 -22.9382 33.3973
rtibia 65.8002
rfoot -20.7186 -2.5216
rtoes -8.70305
lfemur -96.3736 -3.68408 -30.2531
ltibia 52.8908
lfoot -5.44234 -23.0997
ltoes 11.8614
